# xmcd
#
# Track frame offsets: 
#        150
#        18569
#        38686
#        55117
#        74665
#        85886
#        98419
#        114950
#        142922
#        161569
#        203333
#        217443
#
# Disc length: 3127 seconds
#
# Revision: 0
# Processed by: cddbd v1.4PL0 Copyright (c) Steve Scherf et al.
# Submitted via: ExactAudioCopy v0.90b4
#
DISCID=9e0c350c
DTITLE=Van Morrison - Milano 2001, disc 1
DYEAR=2001
DGENRE=Celtic
TTITLE0=Cadillac Baby
TTITLE1=Celtic Swing
TTITLE2=Don't Worry About A Thing
TTITLE3=Goin' Down Geneva > Brand New Cadillac
TTITLE4=Baby Please Don't Go
TTITLE5=Here Comes The Night
TTITLE6=These Dreams Of You
TTITLE7=Madame George
TTITLE8=Moondance
TTITLE9=In The Afternoon
TTITLE10=Days Like This
TTITLE11=Cleaning Windows
EXTD=
EXTT0=
EXTT1=
EXTT2=
EXTT3=
EXTT4=
EXTT5=
EXTT6=
EXTT7=
EXTT8=
EXTT9=
EXTT10=
EXTT11=
PLAYORDER=
